HIERARCHY
ROOT Root
{
	OFFSET 0.00000 0.00000 0.00000
	CHANNELS 6 Xposition Yposition Zposition Zrotation Xrotation Yrotation
	JOINT Hips
	{
		OFFSET 0 0 0	
		CHANNELS 3 Zrotation Xrotation Yrotation
		JOINT Spine
		{
			OFFSET 0 4 0	
			CHANNELS 3 Zrotation Xrotation Yrotation
			JOINT Spine1
			{
				OFFSET 0 19.4 0	
				CHANNELS 3 Zrotation Xrotation Yrotation
				JOINT Spine2
				{
					OFFSET 0 16.6 0	
					CHANNELS 3 Zrotation Xrotation Yrotation
					JOINT LeftCollar
					{
						OFFSET 0 10 0	
						CHANNELS 3 Zrotation Xrotation Yrotation
						JOINT LeftArm
						{
							OFFSET 15.6 -2 3	
							CHANNELS 3 Zrotation Xrotation Yrotation
							JOINT LeftForeArm
							{
								OFFSET 3.5 -27 -1	
								CHANNELS 3 Zrotation Xrotation Yrotation
								JOINT LeftHand
								{
									OFFSET 1 -27 1	
									CHANNELS 3 Zrotation Xrotation Yrotation
									End Site
									{
										OFFSET 0 -15 0
									}
								}
							}
						}
					}
					JOINT RightCollar
					{
						OFFSET 0 10 0	
						CHANNELS 3 Zrotation Xrotation Yrotation
						JOINT RightArm
						{
							OFFSET -15.6 -2 3	
							CHANNELS 3 Zrotation Xrotation Yrotation
							JOINT RightForeArm
							{
								OFFSET -3.5 -27 -1	
								CHANNELS 3 Zrotation Xrotation Yrotation
								JOINT RightHand
								{
									OFFSET -1 -27 1	
									CHANNELS 3 Zrotation Xrotation Yrotation
									End Site
									{
										OFFSET 0 -15 0
									}
								}
							}
						}
					}
					JOINT Neck
					{
						OFFSET 0 10 0	
						CHANNELS 3 Zrotation Xrotation Yrotation
						JOINT Head
						{
							OFFSET 0 12.7 3	
							CHANNELS 3 Zrotation Xrotation Yrotation
							End Site
							{
								OFFSET 0 12.7 3
							}
						}
					}
				}
			}
		}
	}
	JOINT LeftHip
	{
		OFFSET 0 0 0	
		CHANNELS 3 Zrotation Xrotation Yrotation
		JOINT LeftUpLeg
		{
			OFFSET 8.8 -6 0	
			CHANNELS 3 Zrotation Xrotation Yrotation
			JOINT LeftLeg
			{
				OFFSET 0 -39 2	
				CHANNELS 3 Zrotation Xrotation Yrotation
				JOINT LeftFoot
				{
					OFFSET 0 -43 -2	
					CHANNELS 3 Zrotation Xrotation Yrotation
					JOINT LeftFootFront
					{
						OFFSET 0 -7 8.5	
						CHANNELS 3 Zrotation Xrotation Yrotation
						End Site
						{
							OFFSET 0 -0.5 9
						}
					}
				}
				JOINT LeftHeel
				{
					OFFSET 0 -43 -2	
					CHANNELS 3 Zrotation Xrotation Yrotation
					End Site
					{
						OFFSET 0 -7.5 -5
					}
				}
			}
		}
	}
	JOINT RightHip
	{
		OFFSET 0 0 0	
		CHANNELS 3 Zrotation Xrotation Yrotation
		JOINT RightUpLeg
		{
			OFFSET -8.8 -6 0	
			CHANNELS 3 Zrotation Xrotation Yrotation
			JOINT RightLeg
			{
				OFFSET 0 -39 2	
				CHANNELS 3 Zrotation Xrotation Yrotation
				JOINT RightFoot
				{
					OFFSET 0 -43 -2	
					CHANNELS 3 Zrotation Xrotation Yrotation
					JOINT RightFootFront
					{
						OFFSET 0 -7 8.5	
						CHANNELS 3 Zrotation Xrotation Yrotation
						End Site
						{
							OFFSET 0 -0.5 9
						}
					}
				}
				JOINT RightHeel
				{
					OFFSET 0 -43 -2	
					CHANNELS 3 Zrotation Xrotation Yrotation
					End Site
					{
						OFFSET 0 -7.5 -5
					}
				}
			}
		}
	}
}
MOTION
Frames: 15
Frame Time: 0.05
0 95.848 0 -0 0 -0 -4.4015 4.4619 79.485 1.3726 -4.8684 6.6912 1.3726 -4.8684 6.6912 1.1143 -4.1007 5.6104 -0 0 -0 63.721 5.2103 56.597 -6.2665 -7.6775 93.519 -0 0 -0 -0 0 -0 -69.044 19.178 -71.563 1.5046 -2.5378 -82.834 -0 0 -0 -0 0 -0 -0 0 -0 -4.4015 4.4619 79.485 0.22319 -10.042 22.831 -0 0 -0 -0 0 -0 -0 0 -0 -0 0 -0 -4.4015 4.4619 79.485 -1.5911 -3.1977 8.2438 -0 0 -0 -0 0 -0 -0 0 -0 -0 0 -0 
0 95.848 0 -0 0 -0 -3.0046 4.5928 83.024 0.99282 -4.8983 4.3239 0.99282 -4.8983 4.3239 0.80875 -4.1198 3.6248 -0 0 -0 64.576 2.7393 51.62 -9.0987 -6.1733 81.945 -0 0 -0 -0 0 -0 -66.617 12.859 -66.01 3.1252 -0.69697 -72.449 -0 0 -0 -0 0 -0 -0 0 -0 -3.0046 4.5928 83.024 -1.1599 -4.8784 23.397 -0 0 -0 -0 0 -0 -0 0 -0 -0 0 -0 -3.0046 4.5928 83.024 1.7334 -3.6483 11.949 -0 0 -0 -0 0 -0 -0 0 -0 -0 0 -0 
0 95.848 0 -0 0 -0 -1.6544 3.8844 87.66 0.56671 -4.5481 2.1667 0.56671 -4.5481 2.1667 0.46429 -3.8219 1.8163 -0 0 -0 66.753 -2.4164 48.067 -9.2929 -2.2681 65.575 -0 0 -0 -0 0 -0 -62.147 8.4088 -63.042 3.3275 0.54413 -64.635 -0 0 -0 -0 0 -0 -0 0 -0 -1.6544 3.8844 87.66 -1.2465 -2.1689 22.281 -0 0 -0 -0 0 -0 -0 0 -0 -0 0 -0 -1.6544 3.8844 87.66 4.4053 -3.3905 16.374 -0 0 -0 -0 0 -0 -0 0 -0 -0 0 -0 
0 95.848 0 -0 0 -0 -0.1795 2.7735 91.993 0.52012 -4.0601 0.50598 0.52012 -4.0601 0.50598 0.43436 -3.4108 0.42242 -0 0 -0 67.736 -8.1114 44.544 -7.6682 -0.95116 50.285 -0 0 -0 -0 0 -0 -58.96 5.0117 -60.007 3.6755 2.0414 -61.467 -0 0 -0 -0 0 -0 -0 0 -0 -0.1795 2.7735 91.993 -0.64018 -1.7073 22.328 -0 0 -0 -0 0 -0 -0 0 -0 -0 0 -0 -0.1795 2.7735 91.993 6.8508 -6.4116 19.172 -0 0 -0 -0 0 -0 -0 0 -0 -0 0 -0 
0 95.848 0 -0 0 -0 0.10559 2.4224 95.705 0.59669 -2.6044 0.32608 0.59669 -2.6044 0.32609 0.50016 -2.1879 0.27206 -0 0 -0 65.17 -18.196 44.485 -4.9982 -4.5962 38.782 -0 0 -0 -0 0 -0 -56.12 2.7767 -62.113 5.1806 1.9452 -62.719 -0 0 -0 -0 0 -0 -0 0 -0 0.10559 2.4224 95.705 -1.6611 -2.4961 23.596 -0 0 -0 -0 0 -0 -0 0 -0 -0 0 -0 0.10559 2.4224 95.705 9.5162 -12.845 24.39 -0 0 -0 -0 0 -0 -0 0 -0 -0 0 -0 
0 95.848 0 -0 0 -0 1.3055 2.8352 99.467 0.73308 0.14318 0.074487 0.73308 0.14318 0.074507 0.6158 0.12021 0.062702 -0 0 -0 60.999 -29.948 49.462 -2.7464 -11.849 30.302 -0 0 -0 -0 0 -0 -54.102 -2.8894 -69.619 6.2839 1.2213 -65.882 -0 0 -0 -0 0 -0 -0 0 -0 1.3055 2.8352 99.467 -3.83 -1.8094 22.167 -0 0 -0 -0 0 -0 -0 0 -0 -0 0 -0 1.3055 2.8352 99.467 9.6827 -19.575 26.097 -0 0 -0 -0 0 -0 -0 0 -0 -0 0 -0 
0 95.848 0 -0 0 -0 5.2267 2.8321 102.23 1.4606 3.8764 0.26009 1.4606 3.8764 0.26009 1.2277 3.2558 0.22507 -0 0 -0 58.338 -41.36 58.72 -6.2256 -19.347 21.051 -0 0 -0 -0 0 -0 -52.257 -8.8336 -76.147 8.1231 -1.167 -71.646 -0 0 -0 -0 0 -0 -0 0 -0 5.2267 2.8321 102.23 -5.1979 3.9444 20.36 -0 0 -0 -0 0 -0 -0 0 -0 -0 0 -0 5.2267 2.8321 102.23 11.648 -22.832 24.081 -0 0 -0 -0 0 -0 -0 0 -0 -0 0 -0 
0 95.848 0 -0 0 -0 9.6583 2.5062 103.4 2.4414 7.4991 1.0001 2.4414 7.4991 1.0001 2.0576 6.2965 0.8609 -0 0 -0 54.271 -51.271 63.548 -14.325 -26.445 11.767 -0 0 -0 -0 0 -0 -50.227 -14.447 -76.602 12.484 -3.2334 -72.769 -0 0 -0 -0 0 -0 -0 0 -0 9.6583 2.5062 103.4 -6.7279 13.838 20.868 -0 0 -0 -0 0 -0 -0 0 -0 -0 0 -0 9.6583 2.5062 103.4 15.987 -26.844 28.695 -0 0 -0 -0 0 -0 -0 0 -0 -0 0 -0 
0 95.848 0 -0 0 -0 13.833 2.3842 103.26 2.3309 10.385 1.9824 2.3309 10.385 1.9824 1.9787 8.7181 1.6907 -0 0 -0 48.505 -59.649 56.404 -21.031 -31.035 5.7599 -0 0 -0 -0 0 -0 -42.434 -20.006 -71.347 17.731 -8.1162 -59.538 -0 0 -0 -0 0 -0 -0 0 -0 13.833 2.3842 103.26 -9.0401 24.697 22.73 -0 0 -0 -0 0 -0 -0 0 -0 -0 0 -0 13.833 2.3842 103.26 19.011 -26.056 32.698 -0 0 -0 -0 0 -0 -0 0 -0 -0 0 -0 
0 95.848 0 -0 0 -0 15.968 2.2602 103.03 1.9774 9.2631 1.7977 1.9774 9.2631 1.7977 1.6782 7.777 1.5294 -0 0 -0 35.37 -56.727 36.718 -26.548 -32.567 1.5213 -0 0 -0 -0 0 -0 -29.162 -16.7 -50.315 23.22 -19.843 -38.115 -0 0 -0 -0 0 -0 -0 0 -0 15.968 2.2602 103.03 -8.6872 28.632 23.907 -0 0 -0 -0 0 -0 -0 0 -0 -0 0 -0 15.968 2.2602 103.03 20.599 -19.775 32.261 -0 0 -0 -0 0 -0 -0 0 -0 -0 0 -0 
0 95.848 0 -0 0 -0 14.886 1.4183 104.99 2.598 6.1494 -1.063 2.598 6.1494 -1.063 2.1732 5.1689 -0.8735 -0 0 -0 29.86 -47.045 27.574 -32.287 -31.606 -1.8888 -0 0 -0 -0 0 -0 -23.208 -10.827 -24.221 32.11 -36.403 -22.669 -0 0 -0 -0 0 -0 -0 0 -0 14.886 1.4183 104.99 -2.8072 20.993 20.433 -0 0 -0 -0 0 -0 -0 0 -0 -0 0 -0 14.886 1.4183 104.99 20.686 -16.726 25.323 -0 0 -0 -0 0 -0 -0 0 -0 -0 0 -0 
0 95.848 0 -0 0 -0 12.188 0.46609 106.66 3.1639 3.9255 -3.8253 3.1639 3.9255 -3.8253 2.6394 3.3119 -3.1978 -0 0 -0 32.855 -40.075 28.56 -41.559 -29.579 -8.35 -0 0 -0 -0 0 -0 -24.141 -9.914 -8.5378 50.558 -44.607 9.0116 -0 0 -0 -0 0 -0 -0 0 -0 12.188 0.46609 106.66 2.4263 6.8102 17.654 -0 0 -0 -0 0 -0 -0 0 -0 -0 0 -0 12.188 0.46609 106.66 19.022 -13.34 18.104 -0 0 -0 -0 0 -0 -0 0 -0 -0 0 -0 
0 95.848 0 -0 0 -0 9.5281 0.70158 107.14 3.5195 4.3548 -4.6016 3.5195 4.3548 -4.6016 2.932 3.6773 -3.8462 -0 0 -0 40.5 -40.265 30.293 -55.985 -29.39 -13.048 -0 0 -0 -0 0 -0 -30.393 -17.979 -2.6557 75.23 -47.198 39.126 -0 0 -0 -0 0 -0 -0 0 -0 9.5281 0.70158 107.14 3.5108 -6.2146 18.856 -0 0 -0 -0 0 -0 -0 0 -0 -0 0 -0 9.5281 0.70158 107.14 15.9 -7.3271 12.606 -0 0 -0 -0 0 -0 -0 0 -0 -0 0 -0 
0 95.848 0 -0 0 -0 5.4411 2.4314 105.87 2.0037 2.5188 -2.3165 2.0037 2.5188 -2.3166 1.6761 2.1213 -1.9398 -0 0 -0 43.095 -38.006 17.742 -77.301 -33.305 -15.298 -0 0 -0 -0 0 -0 -34.314 -19.344 0.61901 97.203 -47.312 58.5 -0 0 -0 -0 0 -0 -0 0 -0 5.4411 2.4314 105.87 0.013273 -17.788 18.042 -0 0 -0 -0 0 -0 -0 0 -0 -0 0 -0 5.4411 2.4314 105.87 10.503 -3.4439 11.905 -0 0 -0 -0 0 -0 -0 0 -0 -0 0 -0 
0 95.848 0 -0 0 -0 0.39673 4.4702 102.99 -0.36453 0.087772 0.71993 -0.36453 0.087771 0.71993 -0.30613 0.074036 0.6047 -0 0 -0 43.551 -33.016 3.1834 -101.3 -36.582 -22.425 -0 0 -0 -0 0 -0 -36.336 -19.24 1.0379 111.26 -47.245 72.234 -0 0 -0 -0 0 -0 -0 0 -0 0.39673 4.4702 102.99 -4.3653 -27.287 12.144 -0 0 -0 -0 0 -0 -0 0 -0 -0 0 -0 0.39673 4.4702 102.99 5.1856 -3.6101 13.341 -0 0 -0 -0 0 -0 -0 0 -0 -0 0 -0 
